<?xml version="1.0" encoding="utf-8"?>
<svg viewBox="11.211 156.614 828.476 230.158" xmlns="http://www.w3.org/2000/svg">
  <path d="M 332.362 295.79 L 289.659 295.79 L 289.659 217.737 Q 289.659 206.991 295.88 200.91 Q 302.102 194.83 312.566 194.83 Q 318.504 194.83 324.019 195.679 Q 329.534 196.527 332.362 197.093 Z M 312 302.294 L 312 267.793 L 397.123 267.793 Q 398.82 270.621 400.234 275.004 Q 401.648 279.387 401.648 284.478 Q 401.648 293.527 397.547 297.911 Q 393.446 302.294 386.376 302.294 Z M 312.566 229.332 L 312.566 194.83 L 406.738 194.83 Q 408.435 197.375 409.849 201.9 Q 411.263 206.425 411.263 211.515 Q 411.263 220.565 407.162 224.948 Q 403.062 229.332 395.992 229.332 Z M 289.659 279.105 L 332.644 279.105 L 332.644 365.924 Q 330.099 366.773 324.443 367.48 Q 318.787 368.187 312.848 368.187 Q 300.122 368.187 294.891 363.662 Q 289.659 359.137 289.659 348.108 Z" style="fill: rgb(67, 94, 190); white-space: pre;"/>
  <path d="M 432.617 191.437 Q 432.617 181.821 439.262 175.317 Q 445.908 168.813 456.089 168.813 Q 466.553 168.813 473.057 175.317 Q 479.561 181.821 479.561 191.437 Q 479.561 200.769 473.057 207.556 Q 466.553 214.343 456.089 214.343 Q 445.908 214.343 439.262 207.556 Q 432.617 200.769 432.617 191.437 Z M 435.162 291.548 L 477.016 291.548 L 477.016 365.924 Q 474.471 366.773 469.381 367.48 Q 464.29 368.187 458.351 368.187 Q 446.191 368.187 440.676 363.945 Q 435.162 359.703 435.162 348.673 Z M 477.016 313.323 L 435.162 313.323 L 435.162 232.16 Q 437.707 231.311 442.939 230.463 Q 448.171 229.615 454.109 229.615 Q 466.27 229.615 471.643 233.715 Q 477.016 237.816 477.016 249.411 Z" style="fill: rgb(67, 94, 190); white-space: pre;"/>
  <path d="M 572.472 311.909 L 542.213 292.679 L 606.126 228.201 Q 618.852 228.483 626.629 234.139 Q 634.406 239.795 634.406 248.279 Q 634.406 255.632 629.315 261.43 Q 624.225 267.227 613.761 276.277 Z M 543.91 298.618 L 577.28 283.912 L 639.779 344.431 Q 638.648 355.743 632.992 362.106 Q 627.336 368.469 616.872 368.469 Q 609.236 368.469 602.873 364.652 Q 596.51 360.834 589.44 352.067 Z M 512.519 291.265 L 554.373 292.113 L 554.373 365.924 Q 551.545 366.773 546.455 367.48 Q 541.364 368.187 535.426 368.187 Q 523.548 368.187 518.033 363.945 Q 512.519 359.703 512.519 348.673 Z M 554.373 313.889 L 512.519 313.041 L 512.519 182.104 Q 515.064 181.256 520.154 180.407 Q 525.245 179.559 531.184 179.559 Q 543.344 179.559 548.859 183.801 Q 554.373 188.043 554.373 199.355 Z" style="fill: rgb(67, 94, 190); white-space: pre;"/>
  <path d="M 707.231 266.944 L 707.231 302.294 L 665.376 302.294 L 665.376 261.854 Q 665.376 253.935 669.194 248.421 Q 673.012 242.906 679.799 238.664 Q 689.132 233.008 702.282 229.756 Q 715.432 226.504 729.855 226.504 Q 758.7 226.504 758.7 245.734 Q 758.7 250.259 757.428 254.218 Q 756.155 258.177 754.458 261.005 Q 751.63 260.44 747.53 260.016 Q 743.429 259.591 738.622 259.591 Q 730.138 259.591 721.654 261.571 Q 713.17 263.551 707.231 266.944 Z M 665.376 291.548 L 707.231 292.396 L 707.231 365.924 Q 704.403 366.773 699.312 367.48 Q 694.222 368.187 688.283 368.187 Q 676.406 368.187 670.891 363.945 Q 665.376 359.703 665.376 348.673 Z" style="fill: rgb(67, 94, 190); white-space: pre;"/>
  <path d="M 779.213 191.437 Q 779.213 181.821 785.859 175.317 Q 792.505 168.813 802.686 168.813 Q 813.149 168.813 819.654 175.317 Q 826.158 181.821 826.158 191.437 Q 826.158 200.769 819.654 207.556 Q 813.149 214.343 802.686 214.343 Q 792.505 214.343 785.859 207.556 Q 779.213 200.769 779.213 191.437 Z M 781.759 291.548 L 823.613 291.548 L 823.613 365.924 Q 821.068 366.773 815.977 367.48 Q 810.887 368.187 804.948 368.187 Q 792.788 368.187 787.273 363.945 Q 781.759 359.703 781.759 348.673 Z M 823.613 313.323 L 781.759 313.323 L 781.759 232.16 Q 784.304 231.311 789.536 230.463 Q 794.767 229.615 800.706 229.615 Q 812.867 229.615 818.24 233.715 Q 823.613 237.816 823.613 249.411 Z" style="fill: rgb(67, 94, 190); white-space: pre;"/>
  <ellipse style="stroke: rgb(0, 0, 0); fill: rgb(0, 221, 255);" cx="117.626" cy="209.091" rx="47.463" ry="46.533"/>
  <ellipse style="stroke: rgb(0, 0, 0); fill: rgb(67, 94, 190);" cx="115.989" cy="323.266" rx="85.796" ry="42.898"/>
</svg>